<svg xmlns="http://www.w3.org/2000/svg" version="1.1" xmlns:xlink="http://www.w3.org/1999/xlink" xmlns:svgjs="http://svgjs.com/svgjs" width="1440" height="560" preserveAspectRatio="none" viewBox="0 0 1440 560"><g mask="url(&quot;#SvgjsMask2059&quot;)" fill="none"><rect width="1440" height="560" x="0" y="0" fill="url(#SvgjsLinearGradient2060)"></rect><path d="M 0,180 C 144,153.6 432,34.2 720,48 C 1008,61.8 1296,208.8 1440,249L1440 560L0 560z" fill="rgba(255, 255, 255, 1)"></path><path d="M 0,311 C 48,339.2 144,456.6 240,452 C 336,447.4 384,286.4 480,288 C 576,289.6 624,437 720,460 C 816,483 864,394 960,403 C 1056,412 1104,526.2 1200,505 C 1296,483.8 1392,338.6 1440,297L1440 560L0 560z" fill="rgba(149, 195, 244, 1)"></path></g><defs><mask id="SvgjsMask2059"><rect width="1440" height="560" fill="#ffffff"></rect></mask><linearGradient x1="15.28%" y1="-39.29%" x2="84.72%" y2="139.29%" gradientUnits="userSpaceOnUse" id="SvgjsLinearGradient2060"><stop stop-color="rgba(95, 173, 255, 1)" offset="0"></stop><stop stop-color="rgba(255, 255, 255, 1)" offset="1"></stop></linearGradient></defs></svg>