<svg xmlns="http://www.w3.org/2000/svg" version="1.1" xmlns:xlink="http://www.w3.org/1999/xlink" xmlns:svgjs="http://svgjs.com/svgjs" width="1440" height="560" preserveAspectRatio="none" viewBox="0 0 1440 560"><g mask="url(&quot;#SvgjsMask1344&quot;)" fill="none"><rect width="1440" height="560" x="0" y="0" fill="url(#SvgjsLinearGradient1345)"></rect><path d="M 0,147 C 144,134.6 432,81.4 720,85 C 1008,88.6 1296,149 1440,165L1440 560L0 560z" fill="rgba(255, 255, 255, 1)"></path><path d="M 0,483 C 57.6,455.6 172.8,350.2 288,346 C 403.2,341.8 460.8,467.8 576,462 C 691.2,456.2 748.8,318.4 864,317 C 979.2,315.6 1036.8,442.4 1152,455 C 1267.2,467.6 1382.4,395 1440,380L1440 560L0 560z" fill="rgba(149, 195, 244, 1)"></path></g><defs><mask id="SvgjsMask1344"><rect width="1440" height="560" fill="#ffffff"></rect></mask><linearGradient x1="0%" y1="50%" x2="100%" y2="50%" gradientUnits="userSpaceOnUse" id="SvgjsLinearGradient1345"><stop stop-color="rgba(255, 255, 255, 1)" offset="0.16"></stop><stop stop-color="rgba(95, 173, 255, 1)" offset="1"></stop></linearGradient></defs></svg>